<?xml version="1.0" encoding="UTF-8" standalone="no"?>
<!DOCTYPE svg PUBLIC "-//W3C//DTD SVG 1.1//EN"
 "http://www.w3.org/Graphics/SVG/1.1/DTD/svg11.dtd">
<!-- Generated by graphviz version 6.0.2 (20221011.1828)
 -->
<!-- Title: Graphical Class Hierarchy Pages: 1 -->
<svg width="210pt" height="64pt"
 viewBox="0.00 0.00 210.00 64.00" xmlns="http://www.w3.org/2000/svg" xmlns:xlink="http://www.w3.org/1999/xlink">
<g id="graph0" class="graph" transform="scale(1 1) rotate(0) translate(4 60)">
<title>Graphical Class Hierarchy</title>
<!-- Node0 -->
<g id="Node000000" class="node">
<title>Node0</title>
<g id="a_Node000000"><a xlink:title=" ">
<polygon fill="#e0e0e0" stroke="#999999" points="71,-37 0,-37 0,-18 71,-18 71,-37"/>
<text text-anchor="middle" x="35.5" y="-25" font-family="Helvetica,sans-Serif" font-size="10.00">testing::Test</text>
</a>
</g>
</g>
<!-- Node1 -->
<g id="Node000001" class="node">
<title>Node1</title>
<g id="a_Node000001"><a xlink:href="class_math_utility_test.html" target="_top" xlink:title=" ">
<polygon fill="white" stroke="#666666" points="195.5,-56 113.5,-56 113.5,-37 195.5,-37 195.5,-56"/>
<text text-anchor="middle" x="154.5" y="-44" font-family="Helvetica,sans-Serif" font-size="10.00">MathUtilityTest</text>
</a>
</g>
</g>
<!-- Node0&#45;&gt;Node1 -->
<g id="edge1_Node000000_Node000001" class="edge">
<title>Node0&#45;&gt;Node1</title>
<g id="a_edge1_Node000000_Node000001"><a xlink:title=" ">
<path fill="none" stroke="#63b8ff" d="M81.17,-34.75C91.74,-36.47 102.94,-38.29 113.29,-39.97"/>
<polygon fill="#63b8ff" stroke="#63b8ff" points="81.72,-31.3 71.29,-33.15 80.6,-38.21 81.72,-31.3"/>
</a>
</g>
</g>
<!-- Node2 -->
<g id="Node000002" class="node">
<title>Node2</title>
<g id="a_Node000002"><a xlink:href="classteam_manager_test.html" target="_top" xlink:title=" ">
<polygon fill="white" stroke="#666666" points="202,-19 107,-19 107,0 202,0 202,-19"/>
<text text-anchor="middle" x="154.5" y="-7" font-family="Helvetica,sans-Serif" font-size="10.00">teamManagerTest</text>
</a>
</g>
</g>
<!-- Node0&#45;&gt;Node2 -->
<g id="edge2_Node000000_Node000002" class="edge">
<title>Node0&#45;&gt;Node2</title>
<g id="a_edge2_Node000000_Node000002"><a xlink:title=" ">
<path fill="none" stroke="#63b8ff" d="M81.28,-20.61C89.68,-19.32 98.48,-17.96 106.93,-16.66"/>
<polygon fill="#63b8ff" stroke="#63b8ff" points="80.64,-17.17 71.29,-22.15 81.7,-24.09 80.64,-17.17"/>
</a>
</g>
</g>
</g>
</svg>
