<?xml version="1.0" encoding="UTF-8" standalone="no"?>
<!DOCTYPE svg PUBLIC "-//W3C//DTD SVG 1.1//EN"
 "http://www.w3.org/Graphics/SVG/1.1/DTD/svg11.dtd">
<!-- Generated by graphviz version 6.0.2 (20221011.1828)
 -->
<!-- Title:  Ahmed/Desktop/cen310&#45;midterm&#45;Parlak&#45;CanAhmediYasar/src/teamManagerapp/src/teamManager/src/teamManager.cpp Pages: 1 -->
<svg width="221pt" height="181pt"
 viewBox="0.00 0.00 220.50 181.00" xmlns="http://www.w3.org/2000/svg" xmlns:xlink="http://www.w3.org/1999/xlink">
<g id="graph0" class="graph" transform="scale(1 1) rotate(0) translate(4 177)">
<title> Ahmed/Desktop/cen310&#45;midterm&#45;Parlak&#45;CanAhmediYasar/src/teamManagerapp/src/teamManager/src/teamManager.cpp</title>
<!-- Node1 -->
<g id="Node000001" class="node">
<title>Node1</title>
<g id="a_Node000001"><a xlink:title=" ">
<polygon fill="#999999" stroke="#666666" points="212.5,-173 22.5,-173 22.5,-121 212.5,-121 212.5,-173"/>
<text text-anchor="start" x="30.5" y="-161" font-family="Helvetica,sans-Serif" font-size="10.00"> Ahmed/Desktop/cen310</text>
<text text-anchor="start" x="30.5" y="-150" font-family="Helvetica,sans-Serif" font-size="10.00">&#45;midterm&#45;Parlak&#45;CanAhmediYasar</text>
<text text-anchor="start" x="30.5" y="-139" font-family="Helvetica,sans-Serif" font-size="10.00">/src/teamManagerapp/src/teamManager</text>
<text text-anchor="middle" x="117.5" y="-128" font-family="Helvetica,sans-Serif" font-size="10.00">/src/teamManager.cpp</text>
</a>
</g>
</g>
<!-- Node2 -->
<g id="Node000002" class="node">
<title>Node2</title>
<g id="a_Node000002"><a xlink:href="team_manager_8h.html" target="_top" xlink:title="Provides functions for math. utilities.">
<polygon fill="white" stroke="#666666" points="125,-85 0,-85 0,-66 125,-66 125,-85"/>
<text text-anchor="middle" x="62.5" y="-73" font-family="Helvetica,sans-Serif" font-size="10.00">../header/teamManager.h</text>
</a>
</g>
</g>
<!-- Node1&#45;&gt;Node2 -->
<g id="edge1_Node000001_Node000002" class="edge">
<title>Node1&#45;&gt;Node2</title>
<g id="a_edge1_Node000001_Node000002"><a xlink:title=" ">
<path fill="none" stroke="#63b8ff" d="M97.64,-120.91C90.34,-111.67 82.25,-101.45 75.67,-93.14"/>
<polygon fill="#63b8ff" stroke="#63b8ff" points="78.42,-90.97 69.47,-85.3 72.93,-95.32 78.42,-90.97"/>
</a>
</g>
</g>
<!-- Node4 -->
<g id="Node000004" class="node">
<title>Node4</title>
<g id="a_Node000004"><a xlink:title=" ">
<polygon fill="#e0e0e0" stroke="#999999" points="202,-85 143,-85 143,-66 202,-66 202,-85"/>
<text text-anchor="middle" x="172.5" y="-73" font-family="Helvetica,sans-Serif" font-size="10.00">stdexcept</text>
</a>
</g>
</g>
<!-- Node1&#45;&gt;Node4 -->
<g id="edge3_Node000001_Node000004" class="edge">
<title>Node1&#45;&gt;Node4</title>
<g id="a_edge3_Node000001_Node000004"><a xlink:title=" ">
<path fill="none" stroke="#63b8ff" d="M137.36,-120.91C144.66,-111.67 152.75,-101.45 159.33,-93.14"/>
<polygon fill="#63b8ff" stroke="#63b8ff" points="162.07,-95.32 165.53,-85.3 156.58,-90.97 162.07,-95.32"/>
</a>
</g>
</g>
<!-- Node3 -->
<g id="Node000003" class="node">
<title>Node3</title>
<g id="a_Node000003"><a xlink:title=" ">
<polygon fill="#e0e0e0" stroke="#999999" points="108.5,-30 16.5,-30 16.5,0 108.5,0 108.5,-30"/>
<text text-anchor="start" x="24.5" y="-18" font-family="Helvetica,sans-Serif" font-size="10.00">../../utility/header</text>
<text text-anchor="middle" x="62.5" y="-7" font-family="Helvetica,sans-Serif" font-size="10.00">/commonTypes.h</text>
</a>
</g>
</g>
<!-- Node2&#45;&gt;Node3 -->
<g id="edge2_Node000002_Node000003" class="edge">
<title>Node2&#45;&gt;Node3</title>
<g id="a_edge2_Node000002_Node000003"><a xlink:title=" ">
<path fill="none" stroke="#63b8ff" d="M62.5,-65.87C62.5,-59.11 62.5,-49.35 62.5,-40.26"/>
<polygon fill="#63b8ff" stroke="#63b8ff" points="66,-40.11 62.5,-30.11 59,-40.11 66,-40.11"/>
</a>
</g>
</g>
</g>
</svg>
